<svg xmlns="http://www.w3.org/2000/svg" style="display: none;">
  <symbol id="active" viewBox="0 0 24 24"><path id="Vector" d="M11 0 4.5 7.39 1.09 3.5 0 4.69l4.5 5.2 7.7-8.59z" fill="currentColor" fill-opacity="1.000000" fill-rule="nonzero"/></symbol>
  <symbol id="heart" viewBox="0 0 24 24"><defs><clipPath id="clip2_403"><rect id="icons/heart" rx="0.000000" width="19.000000" height="19.000000" transform="translate(0.500000 0.500000)" fill="currentColor" fill-opacity="0"/></clipPath></defs><g clip-path="url(#clip2_403)"><path id="Vector" d="M9.89 19c-.29 0-.59-.1-.79-.4-5.41-6.1-6.71-7.5-7-7.9C1.39 9.8 1 8.6 1 7.4 1 4.4 3.39 2 6.5 2 7.8 2 9 2.5 10 3.3c1-.8 2.3-1.3 3.5-1.3 3 0 5.5 2.4 5.5 5.4 0 1.3-.5 2.49-1.3 3.4l-7 7.9c-.2.2-.4.3-.81.3m-6-9.5c.3.39 3.5 4 6.11 6.9l6.2-7.01c.5-.5.69-1.19.69-1.99 0-1.8-1.5-3.3-3.29-3.3-1 0-2 .5-2.71 1.3-.29.3-.59.4-.89.4-.31 0-.61-.2-.81-.4C8.5 4.6 7.5 4.1 6.5 4.1c-1.81 0-3.31 1.5-3.31 3.3-.09.9.31 1.6.7 2.1" fill="currentColor" fill-opacity="1.000000" fill-rule="nonzero"/></g></symbol>
  <symbol id="social-youtube" viewBox="0 0 24 24"><rect id="Social" rx="0.000000" width="21.000000" height="16.000000" transform="translate(0.500000 0.500000)" fill="currentColor" fill-opacity="0"/><path id="Vector" d="M18.6 0H3.17C1.31 0 0 1.59 0 3.39v10.1C0 15.4 1.31 17 3.17 17h15.65c1.64 0 3.18-1.6 3.18-3.4V3.39C21.78 1.59 20.46 0 18.6 0M7.66 12.53V4.46l7.33 4.04z" fill="currentColor" fill-opacity="1.000000" fill-rule="nonzero"/></symbol>
</svg>